<svg xmlns="http://www.w3.org/2000/svg" viewBox="0 0 38 38"><title>Asset 1</title><g id="Layer_2" data-name="Layer 2"><g id="Layer_1-2" data-name="Layer 1"><path d="M28,0H23V1h5V0ZM18,0H13V1h5V0ZM8,0H3V1H8V0ZM1,2H0V7H1V2ZM1,12H0v5H1V12ZM1,22H0v5H1V22ZM1,32H0v5H1V32Zm8,5H4v1H9V37Zm10,0H14v1h5V37Zm10,0H24v1h5V37Zm9,0H34v1h4V37Zm0-10H37v5h1V27Zm0-10H37v5h1V17ZM38,7H37v5h1V7Zm0-7H33V1h4V2h1V0Z"/><rect x="18.5" y="13.5" width="1" height="11"/><rect x="13.5" y="18.5" width="11" height="1"/></g></g></svg>