<svg xmlns="http://www.w3.org/2000/svg" viewBox="0 0 221.55 71.4"><title>Asset 1</title><g id="Layer_2" data-name="Layer 2"><g id="Layer_1-2" data-name="Layer 1"><path d="M40.91,10.94l7.21,12.33L26.74,59.83a12.87,12.87,0,0,0-1.42,3.57H10.24L40.91,10.94M40.91,0A5,5,0,0,0,36.6,2.48L.69,63.87A5,5,0,0,0,5,71.4H38a5,5,0,0,1-4.31-7.53l23.74-40.6L45.23,2.48A5,5,0,0,0,40.91,0Z"/><path d="M73.43,20.24,98.67,63.4H48.19L73.43,20.24m0-10.94a5,5,0,0,0-4.31,2.48L38.65,63.87A5,5,0,0,0,43,71.4H103.9a5,5,0,0,0,4.31-7.53L77.75,11.78A5,5,0,0,0,73.43,9.3Z"/><path d="M132.53,35.63v0a1.49,1.49,0,0,0-.47,1,1.4,1.4,0,0,0,.3,1l12.55,15a2.88,2.88,0,0,1,.53.89,3.12,3.12,0,0,1,.19,1.07,2.79,2.79,0,0,1-.24,1.15,3.2,3.2,0,0,1-.64.94,3.14,3.14,0,0,1-.94.64,2.79,2.79,0,0,1-1.15.24,2.82,2.82,0,0,1-1.38-.34,3,3,0,0,1-1.05-.9L128.35,41.62a1.47,1.47,0,0,0-.49-.39,1.36,1.36,0,0,0-.7-.16.87.87,0,0,0-.61.35,1.73,1.73,0,0,0-.28,1.14l0,12.2a2.49,2.49,0,0,1-.24,1.09,2.78,2.78,0,0,1-.62.86,2.63,2.63,0,0,1-.9.58,2.92,2.92,0,0,1-1.11.21,2.8,2.8,0,0,1-1.12-.22,2.83,2.83,0,0,1-.91-.62,2.79,2.79,0,0,1-.62-.9,2.7,2.7,0,0,1-.22-1.1h0V22.19l0-.07a2.88,2.88,0,0,1,.22-1.13,2.77,2.77,0,0,1,.62-.92,3.13,3.13,0,0,1,.91-.6,2.8,2.8,0,0,1,1.12-.22,2.75,2.75,0,0,1,1.11.22,2.87,2.87,0,0,1,.92.62,2.79,2.79,0,0,1,.84,2v0h0V33.38a1.05,1.05,0,0,0,.16.47c.09.13.28.1.56-.08l13.29-13.63h0a2.61,2.61,0,0,1,2-.87,2.65,2.65,0,0,1,1,.21,2.56,2.56,0,0,1,.86.58,2.94,2.94,0,0,1,.6.87A2.52,2.52,0,0,1,145,22a2.7,2.7,0,0,1-.2,1,2.48,2.48,0,0,1-.54.83Z"/><path d="M160.25,45.34l-5.32-10.23v0a2.94,2.94,0,0,0-1-1.21,2.67,2.67,0,0,0-1.54-.47,2.72,2.72,0,0,0-1.11.22,3,3,0,0,0-.89.61,2.91,2.91,0,0,0-.6.89,2.67,2.67,0,0,0-.23,1.1,2.8,2.8,0,0,0,.14.88,2.94,2.94,0,0,0,.38.75l7.1,13.25Z"/><path d="M172,34.3a2.91,2.91,0,0,0-.89-.6,2.65,2.65,0,0,0-1.08-.23,2.61,2.61,0,0,0-1.6.51,3.2,3.2,0,0,0-.59.57l-1.71,3.31L162,46.24a.82.82,0,0,1-.15.28.53.53,0,0,1-.28.23L158.3,53s0,.06,0,.08a.89.89,0,0,1-.07.29,1.43,1.43,0,0,1-.18.35l-6.63,12.45a2.61,2.61,0,0,0-.54,1.66,2.7,2.7,0,0,0,.22,1.1,3,3,0,0,0,.6.89,2.9,2.9,0,0,0,.9.6,2.64,2.64,0,0,0,1.1.23,2.68,2.68,0,0,0,1.64-.53,2.89,2.89,0,0,0,1-1.33l16-30.93a3.53,3.53,0,0,0,.35-.76,2.71,2.71,0,0,0-.08-1.93A3,3,0,0,0,172,34.3Z"/><path d="M190.59,32.86a2.85,2.85,0,0,1,1,.27,2.76,2.76,0,0,1,.83.6,2.81,2.81,0,0,1,.76,1.92,2.65,2.65,0,0,1-.23,1.08,2.82,2.82,0,0,1-.59.89,2.72,2.72,0,0,1-.88.61,2.77,2.77,0,0,1-1.07.22,2.47,2.47,0,0,1-.39,0,2.79,2.79,0,0,1-.38-.07l-.05,0a2.53,2.53,0,0,0-.5-.09,3.58,3.58,0,0,0-.49,0q-4.58,0-4.58,6.9v9.36a1.79,1.79,0,0,1,0,.39,2.65,2.65,0,0,1-.23,1.08,2.91,2.91,0,0,1-.6.89,3,3,0,0,1-.89.61,2.64,2.64,0,0,1-1.08.22,2.67,2.67,0,0,1-1.1-.22,2.94,2.94,0,0,1-1.5-1.5,2.64,2.64,0,0,1-.22-1.08V36.3a2.72,2.72,0,0,1,.22-1.11,3,3,0,0,1,.61-.89,2.84,2.84,0,0,1,.9-.6,2.83,2.83,0,0,1,2.87.38,2.64,2.64,0,0,1,1,1.55h0a10.52,10.52,0,0,1,2.72-2.2,6.24,6.24,0,0,1,2.9-.62h.46A2.06,2.06,0,0,1,190.59,32.86Z"/><path d="M195.84,45.3a12,12,0,0,1,3.73-8.88,13.19,13.19,0,0,1,18.26,0,12.27,12.27,0,0,1,3.72,9.06,12.21,12.21,0,0,1-3.74,9.08,12.77,12.77,0,0,1-9.23,3.64,12.26,12.26,0,0,1-9.08-3.71A12.49,12.49,0,0,1,195.84,45.3Zm5.69.1a8.12,8.12,0,0,0,1.93,5.72,7.49,7.49,0,0,0,10.44,0,7.92,7.92,0,0,0,1.95-5.61,7.93,7.93,0,0,0-1.95-5.62,7.4,7.4,0,0,0-10.39,0A7.74,7.74,0,0,0,201.53,45.4Z"/></g></g></svg>